<?xml version="1.0" encoding="UTF-8"?>
<svg xmlns="http://www.w3.org/2000/svg" width="16.222036361694336" height="19.308416387230153" viewBox="1811.0000000004457 23.0 16.222036361694336 19.308416387230153" preserveAspectRatio="none">
  <g>
    <defs>
      <path id="s-Path_5-cd3cb" d="M1825.140106130083 33.643405224728575 C1824.835386964907 33.142795169507174 1824.6830273952924 32.576888107692824 1824.6830273952924 31.989215463503086 L1824.6830273952924 30.792104437068144 C1824.6830273952924 28.289054109067806 1823.094134536873 25.98189459327289 1820.7216780144852 25.263628143470694 L1820.7216780144852 24.610658492687996 C1820.7216780144852 23.718266657375658 1820.0034114090029 23.0 1819.111019521797 23.0 C1818.2186276345915 23.0 1817.5003610291092 23.71826660548229 1817.5003610291092 24.610658492687996 L1817.5003610291092 25.28539377773944 C1815.2149672513697 25.98189474895299 1813.5390116483018 28.09316319307565 1813.5390116483018 30.59621352107599 L1813.5390116483018 32.01098109777183 C1813.5390116483018 32.59865379385493 1813.3866520657139 33.164560855669286 1813.0819329135113 33.665170858997314 L1811.275383504831 36.64706555605694 C1810.9271330192244 37.21297256597793 1810.905367359009 37.90947358908484 1811.2318521941302 38.49714623327458 C1811.5583370292516 39.084818877464315 1812.167775401767 39.43306944091113 1812.8207450525495 39.43306944091113 L1825.401293491571 39.43306944091113 C1826.0760287766225 39.43306944091113 1826.663701524599 39.08481895530436 1826.9901863499904 38.49714623327458 C1827.3166711753818 37.90947353719148 1827.2949055151664 37.21297256597793 1826.9466550392895 36.64706555605694 L1825.140106130083 33.643405224728575 Z "></path>
    </defs>
    <g style="mix-blend-mode:normal">
      <use xmlns:xlink="http://www.w3.org/1999/xlink" xlink:href="#s-Path_5-cd3cb" fill="#ABADAF" fill-opacity="1.0"></use>
    </g>
  </g>
  <g>
    <defs>
      <path id="s-Path_4-cd3cb" d="M1818.9562632799912 42.30841275276494 C1820.5451561384102 42.30841275276494 1821.8293297019202 41.34637078400587 1821.8293297019202 40.15578939595818 L1816.083196858062 40.15578939595818 C1816.104962388544 41.346369538565085 1817.3673702139984 42.30841275276494 1818.9562632799912 42.30841275276494 Z "></path>
    </defs>
    <g style="mix-blend-mode:normal">
      <use xmlns:xlink="http://www.w3.org/1999/xlink" xlink:href="#s-Path_4-cd3cb" fill="#ABADAF" fill-opacity="1.0"></use>
    </g>
  </g>
</svg>
