<?xml version="1.0" encoding="UTF-8"?>
<svg xmlns="http://www.w3.org/2000/svg" width="21.191022872924805" height="15.999999364216933" viewBox="771.7462793281733 313.567601017318 21.191022872924805 15.999999364216933" preserveAspectRatio="none">
  <g>
    <defs>
      <path id="s-Path_76-b9b5b" d="M781.8527668645419 324.0564892280384 C782.1417155074863 324.2928366416413 782.5418654714887 324.2928366416413 782.8308141144331 324.0564892280384 L792.4564288973094 316.1809339776587 C792.7648526335465 315.92728522219886 792.8676482157279 315.4676352890341 792.7009407097822 315.08760062737116 C792.579560539397 314.8141119500065 792.4170153185464 314.56472759726626 792.2200675190691 314.3498228644283 C791.7621342450982 313.8497746691928 791.1402029653326 313.56822311370917 790.4921842061949 313.567601017318 L774.1913973557416 313.567601017318 C773.5433785478812 313.56822321201105 772.921447261121 313.84977490415264 772.4635140428675 314.34982323530164 C772.2665662433901 314.5647279681396 772.1040210225397 314.8141123208798 771.9826408521544 315.0876009982445 C771.8159333462087 315.46763565990744 771.9187289283901 315.9272855930722 772.2271526646272 316.18093434853205 Z M774.1913973557416 315.34537879509577 L790.4921842061949 315.34537879509577 C790.5677880066735 315.33239453772154 790.6447914225943 315.33239453772154 790.7203952230728 315.34537879509577 L782.3417907809683 322.23426768398457 L773.9631861688333 315.34537879509577 C774.0387900249362 315.3323945182546 774.1157934996387 315.3323945182546 774.1913973557416 315.34537879509577 Z "></path>
    </defs>
    <g style="mix-blend-mode:normal">
      <use xmlns:xlink="http://www.w3.org/1999/xlink" xlink:href="#s-Path_76-b9b5b" fill="#000000" fill-opacity="1.0"></use>
    </g>
  </g>
  <g>
    <defs>
      <path id="s-Path_74-b9b5b" d="M792.1222628912399 318.90093435065114 C791.6751455357313 318.90093435065114 791.3072235487173 319.3021932214468 791.3072235487173 319.78982323954006 L791.3072235487173 326.90093435065114 C791.3072235487173 327.38856436874437 790.9393015617032 327.78982323954006 790.4921842061946 327.78982323954006 L774.1913973557413 327.78982323954006 C773.7442800002326 327.78982323954006 773.3763580132186 327.38856436874437 773.3763580132186 326.90093435065114 L773.3763580132186 319.78982323954006 C773.3743584386181 319.3021932214468 773.0047910503437 318.9027288393607 772.5576736948351 318.90490959254925 C772.1133101841818 318.90707691423955 771.7482665871745 319.3051965882365 771.7462793281733 319.78982323954006 L771.7462793281733 326.90093435065114 C771.746849830471 327.6076692136766 772.0050099997763 328.2859528027147 772.4635139457067 328.78537869337026 C772.9214471718014 329.2854270892479 773.5433785003462 329.56697882261415 774.1913973557413 329.5676010173178 L790.4921842061946 329.5676010173178 C791.140203014055 329.56697882262483 791.7621343008152 329.2854271304832 792.2200675190688 328.7853787993341 C792.67857152435 328.285952900127 792.9367317314551 327.6076692655184 792.9373022337626 326.90093435065114 L792.9373022337626 319.78982323954006 C792.9373022337626 319.3021932214468 792.5693802467486 318.90093435065114 792.1222628912399 318.90093435065114 Z "></path>
    </defs>
    <g style="mix-blend-mode:normal">
      <use xmlns:xlink="http://www.w3.org/1999/xlink" xlink:href="#s-Path_74-b9b5b" fill="#000000" fill-opacity="1.0"></use>
    </g>
  </g>
</svg>
