<?xml version="1.0" encoding="UTF-8"?>
<svg xmlns="http://www.w3.org/2000/svg" width="16.00050163269043" height="15.73086166381836" viewBox="445.0000000033808 754.3935807653022 16.00050163269043 15.73086166381836" preserveAspectRatio="none">
  <g>
    <defs>
      <path id="s-Path_89-b9b5b" d="M460.8544716291409 754.5370292297539 C461.04900858325806 754.7278109393228 461.04900858325806 755.0423381516246 460.8544716291409 755.2331198611935 L456.7074713163358 759.3093793795003 L459.50047153758817 759.3093793795003 C459.7747634227656 759.3105854191097 459.9994621376891 759.5334892849634 459.9982354640205 759.8031672657467 C459.9970163455697 760.0711842702541 459.7730740289464 760.2913596200274 459.50047153758817 760.2925582315063 L455.5004715375882 760.2925582315063 C455.2261796524108 760.2925582315063 455.0004715375882 760.0706467862866 455.0004715375882 759.8009688055033 L455.0004715375882 755.8682533974796 C455.0016982112568 755.5985754166963 455.22841572597844 755.3776563921107 455.50270761115587 755.37886243172 C455.7753101025141 755.3800610431989 455.9992524191374 755.6002363929721 456.0004715375882 755.8682533974796 L456.0004715375882 758.6142719142548 L460.14647144603543 754.5370292297539 C460.3405172284276 754.3457646105323 460.6604256679349 754.3457646105323 460.85447145032697 754.5370292297539 Z M448.6544718198759 755.6991466731431 C448.42619520619337 755.4104384359268 447.9967163704666 755.3575509846838 447.70306864134056 755.5819877236639 C447.6807179522915 755.5990704907572 447.65947742670306 755.6175128285886 447.639471834181 755.6372064044705 L446.60547155666177 756.6547964322027 C446.12247154640977 757.1306549939951 445.9444715433103 757.8041325392643 446.1554715685827 758.3950229815006 C447.031176303086 760.8406687786382 448.45584106064297 763.0613565316064 450.3234717898351 764.8918686405282 C452.18532354873986 766.7280572627387 454.4439983589011 768.1287534577109 456.93147159147077 768.9897583132196 C457.532471602438 769.1972090465391 458.2174716048222 769.0222032151601 458.7014715723973 768.5473278415374 L459.7354716114979 767.5307208701203 C459.99863640143457 767.2723047050149 459.99890580941496 766.8467510862637 459.7360684176442 766.5880130302054 C459.71606282512215 766.5683194543234 459.6948222995337 766.5498771164921 459.67247161048465 766.5327943493987 L457.36547168868594 764.7689714598336 C457.20120442756763 764.6437097123248 456.98714581073006 764.5994409787776 456.7854717053753 764.6490236385409 L454.59547164815484 765.1868224616807 C454.0015486268897 765.3327678611931 453.3713652883675 765.1611392736926 452.9384717025143 764.7355433770487 L450.4824714117032 762.3198732943806 C450.04923640971253 761.8944619036791 449.87428329087425 761.2748512564913 450.02247140335857 760.6907459900519 L450.57047138142406 758.537584247901 C450.6209023479386 758.3393025325189 450.57587622328504 758.1288446273546 450.44847138005315 757.9673405301461 L448.6544715814573 755.6991465852401 Z M446.8844714813215 754.8958894908114 C447.5612621279313 754.2302716749095 448.6752682920507 754.2300975832875 449.3522741232318 754.8955038342697 C449.40369710526085 754.9460457529805 449.4518567971258 754.9996983108127 449.49647146987735 755.0561476461496 L451.29047149944125 757.3233581172011 C451.61947149562656 757.739242779335 451.7354714922887 758.2809742965517 451.60547149705707 758.7922272808421 L451.058471506117 760.945389022993 C451.0010132171692 761.171963873506 451.06868410295124 761.4123034863204 451.2364715092164 761.5775730313962 L453.69347152638255 763.9932434876522 C453.86177625820307 764.1585501606639 454.1067095851212 764.2251103512176 454.33747152018367 764.1682493263565 L456.5264714114648 763.6304505032168 C457.0460642821483 763.502721526197 457.5975605667304 763.6170449137152 458.02047136950307 763.9401518392546 L460.326471363781 765.7039747288198 C461.1554713599663 766.338125069611 461.2314713351708 767.542519186759 460.4894713662844 768.2710547714157 L459.4554713271838 769.2876617428328 C458.71547131764703 770.0152141026936 457.6094713710528 770.3347472764771 456.57847123372375 769.9778533185065 C453.93975967273497 769.0650335941536 451.5436646890614 767.579642543429 449.5684710048419 765.6322027176298 C447.5878387907586 763.6905174549998 446.07704214609294 761.3350760105521 445.148470928548 758.7411023164445 C444.7864709399921 757.7284281270074 445.1114709280712 756.6400490271963 445.8514709376079 755.9124966673355 L446.88547152805154 754.8958894908114 Z "></path>
    </defs>
    <g style="mix-blend-mode:normal">
      <use xmlns:xlink="http://www.w3.org/1999/xlink" xlink:href="#s-Path_89-b9b5b" fill="#000000" fill-opacity="1.0"></use>
    </g>
  </g>
</svg>

