<?xml version="1.0" encoding="UTF-8"?>
<svg xmlns="http://www.w3.org/2000/svg" width="16.00050163269043" height="16.000097274780273" viewBox="954.0000000033813 314.0 16.00050163269043 16.000097274780273" preserveAspectRatio="none">
  <g>
    <defs>
      <path id="s-Path_75-b9b5b" d="M957.6544715814578 315.32799994945526 C957.4261949677752 315.03435222032925 956.9967161320485 314.98055992085574 956.7030684029224 315.20883653453825 C956.6807177138734 315.22621156966886 956.659477188285 315.2449694363517 956.6394715957629 315.264999948442 L955.6054715566622 316.2999999523163 C955.1224715464102 316.7839999496937 954.9444715433108 317.4689999818802 955.1554715685832 318.0699999332428 C956.0311763030865 320.5574881375994 957.4558410606435 322.816169504105 959.3234717898356 324.67799973487854 C961.1853235487404 326.545603598066 963.4439983589016 327.9702642202045 965.9314715914713 328.845999956131 C966.5324716024386 329.05699995160103 967.2174716048228 328.87899995595217 967.7014715723978 328.3959999680519 L968.7354716114985 327.36199992895126 C968.9986364014351 327.0991625371806 968.9989058094155 326.6663281470967 968.7360684176448 326.4031633571601 C968.7160628251227 326.38313284506984 968.6948222995343 326.364374978387 968.6724716104852 326.3469999432564 L966.3654716886865 324.5529999136925 C966.2012044275682 324.4255950704606 965.9871458107306 324.380568945807 965.7854717053758 324.43099991232157 L963.5954716481554 324.97799990326166 C963.0015486268902 325.12644227385846 962.371365288368 324.95187730315115 961.9384717025148 324.51899991184473 L959.4824714117037 322.0620002746582 C959.049236409713 321.62931054599534 958.8742832908747 320.9990990174176 959.0224714033591 320.40500032901764 L959.5704713814246 318.2150002717972 C959.6209023479391 318.01332616644237 959.5758762232855 317.7992675496048 959.4484713800537 317.6350002884865 L957.6544715814578 315.32799994945526 Z M955.884471481322 314.51099997758865 C956.5612621279317 313.8339941464076 957.6752682920512 313.83381707626245 958.3522741232323 314.5106077228723 C958.4036971052614 314.5620143602381 958.4518567971263 314.6165848564634 958.4964714698779 314.67399998009205 L960.2904714994418 316.9800000190735 C960.6194714956271 317.4030000269413 960.7354714922892 317.9539999961853 960.6054714970576 318.4739999771118 L960.0584715061175 320.6640000343323 C960.0010132171697 320.8944513403695 960.0686841029517 321.1389029092006 960.2364715092169 321.307000041008 L962.6934715263831 323.76400005817413 C962.8617762582036 323.932134953137 963.1067095851217 323.9998339179976 963.3374715201842 323.9420000612736 L965.5264714114653 323.3950000703335 C966.0460642821488 323.26508578590875 966.597560566731 323.3813651254053 967.0204713695036 323.7100000679493 L969.3264713637816 325.5040000975132 C970.1554713599669 326.1490000784397 970.2314713351714 327.37400010228157 969.489471366285 328.11500015854836 L968.4554713271843 329.149000197649 C967.7154713176476 329.88900020718575 966.6094713710534 330.21400025486946 965.5784712337243 329.8510002195835 C962.9397596727355 328.92256311733047 960.5436646890619 327.4117586002336 958.5684710048424 325.43100014328957 C956.5878387907591 323.45609470399097 955.0770421460934 321.06035415318263 954.1484709285485 318.42200031876564 C953.7864709399926 317.39200034737587 954.1114709280716 316.2850002348423 954.8514709376084 315.54500022530556 L955.885471528052 314.51099997758865 Z M965.0004715375887 314.5 C965.0004715375887 314.22570811482257 965.2261796524114 314.0 965.5004715375887 314.0 L969.5004715375887 314.0 C969.7747634227661 314.0 970.0004715375887 314.22570811482257 970.0004715375887 314.5 L970.0004715375887 318.5 C969.9992448639202 318.77429188517743 969.7725273491985 318.99899060010085 969.498235464021 318.99776392643236 C969.2256329726629 318.99654480798154 969.0016906560395 318.7726024913582 969.0004715375887 318.5 L969.0004715375887 315.70700001716614 L964.8544716291415 319.85399985313416 C964.6594044882961 320.0473300240543 964.3398017957701 320.0459007137885 964.1464716248499 319.85083357294315 C963.9543321956668 319.65696787202324 963.9543321956668 319.3398655497625 964.1464716248499 319.1459998488426 L968.2934717588412 315.0 L965.5004715375887 315.0 C965.2261796524114 315.0 965.0004715375887 314.77429188517743 965.0004715375887 314.5 Z "></path>
    </defs>
    <g style="mix-blend-mode:normal">
      <use xmlns:xlink="http://www.w3.org/1999/xlink" xlink:href="#s-Path_75-b9b5b" fill="#000000" fill-opacity="1.0"></use>
    </g>
  </g>
</svg>
